<?xml version="1.0" encoding="UTF-8"?>
<svg width="38px" height="48px" viewBox="0 0 38 48" version="1.1" xmlns="http://www.w3.org/2000/svg" xmlns:xlink="http://www.w3.org/1999/xlink">
    <title>Flask</title>
    <g id="Recipe" stroke="none" stroke-width="1" fill="none" fill-rule="evenodd">
        <g id="First-Step-+-Instruction" transform="translate(-45.000000, -124.000000)" fill="#000000" fill-rule="nonzero">
            <g id="Flask" transform="translate(45.000000, 124.000000)">
                <path d="M24,19.3 L24,6.1 C25,5.8 25.7,5 25.7,3.9 L25.7,2.3 C25.7,1 24.7,0 23.4,0 L14.6,0 C13.3,0 12.3,1 12.3,2.3 L12.3,3.9 C12.3,5 13,5.9 14,6.1 L14,19.2 C5.3,21.6 0.2,29.8 0.2,37.4 C0.2,41 1.2,44.5 3.2,47.5 C3.3,47.8 3.7,48 4,48 L34,48 C34.3,48 34.7,47.8 34.8,47.5 C36.7,44.5 37.8,41 37.8,37.4 C37.8,32.5 35.7,27.5 32.1,23.9 C29.9,21.6 27.1,20.1 24,19.3 Z M14.3,2.3 C14.3,2.1 14.4,2 14.6,2 L23.4,2 C23.6,2 23.7,2.1 23.7,2.3 L23.7,3.9 C23.7,4.1 23.6,4.2 23.4,4.2 L14.6,4.2 C14.4,4.2 14.3,4.1 14.3,3.9 L14.3,2.3 Z M22,6.2 L22,18.8 C21,18.7 20,18.6 19,18.6 C19,18.6 19,18.6 19,18.6 C18,18.6 17,18.7 16,18.8 L16,6.2 L22,6.2 Z M33.4,46 L4.6,46 C3,43.4 2.2,40.5 2.2,37.4 C2.2,29.1 8.8,20.6 19,20.6 C19,20.6 19,20.6 19,20.6 C23.4,20.6 27.5,22.1 30.7,25.3 C33.9,28.5 35.8,33 35.8,37.4 C35.8,40.5 35,43.4 33.4,46 Z" id="Shape"></path>
                <path d="M18.9,32.1 C15.3,29.4 9.7,30.6 6.6,31.5 L6.6,31.5 C5.5,31.8 4.7,32.7 4.4,33.8 C3.8,36.2 3.9,39 4.7,41.8 C5.1,43.1 6.3,44.1 7.8,44.1 L30.2,44.1 C31.4,44.1 32.5,43.4 33.2,42.1 C34.2,40.3 33.9,36.3 33.9,36.2 C33.7,34 31.3,32.6 29.3,33.6 C27,34.7 23.3,35.4 18.9,32.1 Z M31.9,36.4 C32,37.1 32,40.1 31.4,41.2 C31,41.9 30.6,42.2 30.1,42.2 L7.8,42.2 C7.2,42.2 6.8,41.9 6.6,41.4 C5.9,38.9 5.8,36.5 6.4,34.4 C6.5,34 6.8,33.6 7.2,33.5 C9.4,32.8 14.7,31.5 17.7,33.7 C23.1,37.8 27.8,36.5 30.2,35.4 C31,35.1 31.9,35.6 31.9,36.4 Z" id="Shape"></path>
                <path d="M25.5,32.6 C27.5,32.6 29.2,31 29.2,28.9 C29.2,26.9 27.6,25.2 25.5,25.2 C23.4,25.2 21.8,27 21.8,29 C21.8,31 23.5,32.6 25.5,32.6 Z M25.5,27.3 C26.4,27.3 27.2,28 27.2,29 C27.2,30 26.5,30.7 25.5,30.7 C24.5,30.7 23.8,30 23.8,29 C23.8,28 24.6,27.3 25.5,27.3 Z" id="Shape"></path>
            </g>
        </g>
    </g>
</svg>