<?xml version="1.0" encoding="UTF-8"?>
<svg width="44px" height="60px" viewBox="0 0 44 60" version="1.1" xmlns="http://www.w3.org/2000/svg" xmlns:xlink="http://www.w3.org/1999/xlink">
    <title>noun_groceries_1195597</title>
    <g id="Recipe" stroke="none" stroke-width="1" fill="none" fill-rule="evenodd">
        <g id="First-Step-+-Instruction" transform="translate(-45.000000, -197.000000)" fill="#000000" fill-rule="nonzero">
            <g id="noun_groceries_1195597" transform="translate(45.000000, 197.000000)">
                <path d="M4.99999997,28 C4.73476237,28 4.48036837,28.1052657 4.29281703,28.292817 C4.1052657,28.4803684 3.99993101,28.7347624 3.99999997,29 L3.99999997,51 C3.99999997,51.5522847 4.44771525,52 4.99999997,52 C5.55228475,52 5.99999997,51.5522847 5.99999997,51 L5.99999997,29 C6.00006899,28.7347624 5.8947343,28.4803684 5.70718297,28.292817 C5.51963163,28.1052657 5.26523763,28 4.99999997,28 Z" id="Path"></path>
                <path d="M38,29 L38,51 C38,51.5522847 38.4477153,52 39,52 C39.5522847,52 40,51.5522847 40,51 L40,29 C40,28.4477153 39.5522847,28 39,28 C38.4477153,28 38,28.4477153 38,29 Z" id="Path"></path>
                <path d="M2,5 L2,17.63782 L1.76758,17.35938 C1.49791837,17.0363172 1.05484901,16.9166592 0.659214576,17.060048 C0.263580139,17.2034369 0,17.579183 0,18 L0,51.55176 C0.000755595429,52.7211163 0.410477793,53.8533815 1.1582,54.75244 L3.43261,57.48144 C4.76109171,59.0794993 6.73241383,60.0026954 8.81055,60 L35.18945,60 C37.267581,60.0026949 39.2388986,59.0795029 40.56738,57.48145 L42.84179,54.75245 C43.589518,53.8533903 43.9992439,52.7211209 44,51.55176 L44,18 C44,17.579183 43.7364199,17.2034369 43.3407854,17.060048 C42.945151,16.9166592 42.5020816,17.0363172 42.23242,17.35938 L42,17.63782 L42,14 C41.9950335,11.0752798 39.8835099,8.57959832 37,8.09033 L37,6 C38.1040464,5.99873803 38.998738,5.10404635 39,4 L39,2 C38.998738,0.895953647 38.1040464,0.00126196688 37,0 L31,0 C29.8959536,0.00126196688 29.001262,0.895953647 29,2 L29,4 C29.001262,5.10404635 29.8959536,5.99873803 31,6 L31,8.09033 C28.3853604,8.53571392 26.3725191,10.6435534 26.0481,13.27594 C25.3803777,13.0949242 24.6918202,13.0021551 24,13 C22.5946909,13.0044075 21.2152421,13.3782381 20,14.084 L20,9 C19.9967544,6.23992176 17.7600782,4.00324564 15,4 C13.9146229,4.00380538 12.8605645,4.36414227 12,5.02557 L12,5 C12,2.23857625 9.76142375,0 7,0 C4.23857625,0 2,2.23857625 2,5 Z M42,51.55176 C41.9994222,52.2534201 41.7534508,52.9327805 41.30469,53.47217 L39.03028,56.20117 C38.0815691,57.3425777 36.6736535,58.0019666 35.18945,58.0000044 L8.81055,58.0000044 C7.32634999,58.0019636 5.91843869,57.342575 4.96973,56.20117 L2.69532,53.47217 C2.24655562,52.9327819 2.00058059,52.2534214 2,51.55176 L2,20.7583 L4.42285,23.66064 C4.46251952,23.6986893 4.50545078,23.7331849 4.55115,23.76373 C4.59005429,23.8060923 4.63275219,23.8448069 4.67871,23.87939 C4.68799,23.88488 4.69849,23.88446 4.70776,23.88958 C4.77424631,23.9218051 4.84420117,23.9463178 4.91626,23.96264 C4.96825517,23.9826007 5.02182852,23.9981783 5.07642,24.00921 C5.14569202,24.0125539 5.21512366,24.0086055 5.28357,23.99743 C5.34089231,23.9965723 5.39803258,23.9907506 5.45435,23.98003 C5.51240737,23.9590012 5.568393,23.932642 5.62159,23.90129 C5.68565569,23.8749505 5.7467143,23.8418214 5.80372,23.80247 C5.81214,23.79582 5.82272,23.79454 5.83106,23.78758 C5.86948732,23.7475229 5.90429005,23.70414 5.93506,23.65794 C5.97702376,23.619399 6.01542907,23.5771548 6.04981,23.53172 L6.3545,23.01854 C6.49801365,22.802185 6.74037404,22.6721163 7,22.6721163 C7.25962596,22.6721163 7.50198635,22.802185 7.6455,23.01854 C8.02445703,23.6578286 8.64873015,24.1139946 9.3729353,24.2808036 C10.0971405,24.4476127 10.8580647,24.3105046 11.4785,23.90141 C11.5721147,23.8522735 11.6572589,23.788466 11.7307,23.71241 C11.9764683,23.5181726 12.1874037,23.2835425 12.35448,23.01856 C12.4979936,22.802205 12.740354,22.6721363 12.99998,22.6721363 C13.259606,22.6721363 13.5019664,22.802205 13.64548,23.01856 C14.1423241,23.8447768 15.0358803,24.3501152 15.99998,24.3501152 C16.9640797,24.3501152 17.8576359,23.8447768 18.35448,23.01856 C18.4979936,22.802205 18.740354,22.6721363 18.99998,22.6721363 C19.259606,22.6721363 19.5019664,22.802205 19.64548,23.01856 C20.1423241,23.8447768 21.0358803,24.3501152 21.99998,24.3501152 C22.9640797,24.3501152 23.8576359,23.8447768 24.35448,23.01856 C24.4979936,22.802205 24.740354,22.6721363 24.99998,22.6721363 C25.259606,22.6721363 25.5019664,22.802205 25.64548,23.01856 C26.1423241,23.8447768 27.0358803,24.3501152 27.99998,24.3501152 C28.9640797,24.3501152 29.8576359,23.8447768 30.35448,23.01856 C30.4979936,22.802205 30.740354,22.6721363 30.99998,22.6721363 C31.259606,22.6721363 31.5019664,22.802205 31.64548,23.01856 C32.1426814,23.8452975 33.0370491,24.3507048 34.0017791,24.3501048 C34.966509,24.3495048 35.8602474,23.8429854 36.35642,23.01563 C36.4921408,22.7911343 36.7350798,22.6536328 36.9974113,22.6528341 C37.2597429,22.6520353 37.5035146,22.7880549 37.6406,23.01172 L37.95017,23.53172 C38.0282809,23.6124252 38.1013364,23.6978743 38.16892,23.78758 C38.17722,23.79458 38.18784,23.79582 38.19626,23.80247 C38.2532657,23.8418214 38.3143243,23.8749505 38.37839,23.90129 C38.4768153,23.9709035 38.596062,24.0048182 38.71639,23.99742 C38.8392024,24.028171 38.968845,24.0158919 39.0837,23.96263 C39.1557588,23.9463078 39.2257137,23.9217951 39.2922,23.88957 C39.30148,23.88444 39.31198,23.88487 39.32125,23.87938 C39.4021123,23.8014419 39.4875506,23.7283955 39.57711,23.66063 L42,20.7583 L42,51.55176 Z M31,2 L37,2.00293 L37,4 L31,4 L31,2 Z M35,6 L35,8 L33,8 L33,6 L35,6 Z M32,10 L36,10 C38.2081634,10.0023534 39.9976466,11.7918366 40,14 L40,20.03375 L38.86792,21.39 C38.2627364,20.8256771 37.4352241,20.5645611 36.6157533,20.6793438 C35.7962825,20.7941265 35.0723571,21.2725513 34.64551,21.98143 C34.5019964,22.197785 34.259636,22.3278537 34,22.3278537 C33.740384,22.3278537 33.4980236,22.197785 33.35451,21.98143 C33.0370689,21.4654036 32.5570501,21.0695819 31.99,20.85626 C31.9549381,18.0543516 30.4361448,15.4813405 28,14.09674 L28,14 C28.0023534,11.7918366 29.7918366,10.0023534 32,10 Z M26.57324,15.58447 C28.6287151,16.5455813 29.955454,18.5954529 29.99048,20.86426 C29.4318171,21.079175 28.9592479,21.4717026 28.64548,21.98145 C28.5019664,22.197805 28.259606,22.3278737 27.99998,22.3278737 C27.740354,22.3278737 27.4979936,22.197805 27.35448,21.98145 C26.8576359,21.1552332 25.9640797,20.6498948 24.99998,20.6498948 C24.0358803,20.6498948 23.1423241,21.1552332 22.64548,21.98145 C22.5019664,22.197805 22.259606,22.3278737 21.99998,22.3278737 C21.740354,22.3278737 21.4979936,22.197805 21.35448,21.98145 C20.6794385,20.8189641 19.2465935,20.3379193 18.00682,20.85755 C18.0375264,19.3377248 18.6498791,17.8875396 19.71776,16.80567 C21.5216033,15.002946 24.2578523,14.5155246 26.57324,15.58447 L26.57324,15.58447 Z M15,6 C16.6561049,6.00180771 17.9981923,7.34389511 18,9 L18,15.72974 C16.3971728,17.5147291 15.7030301,19.9370119 16.11719,22.3 C15.8218378,22.3586314 15.5203747,22.2327023 15.35449,21.9814 C14.6779735,20.8165461 13.2409386,20.3362978 12,20.86035 L12,9 C12.0018077,7.34389511 13.3438951,6.00180771 15,6 L15,6 Z M7,2 C8.65610489,2.00180771 9.99819229,3.34389511 10,5 L10,22.3280427 C9.73902947,22.3333219 9.49420618,22.2019272 9.35449,21.98144 C8.92925959,21.2708358 8.2051559,20.7909723 7.38501989,20.676272 C6.56488389,20.5615718 5.73691513,20.8243701 5.13305,21.39105 L4,20.03375 L4,5 C4.00180771,3.34389511 5.34389511,2.00180771 7,2 L7,2 Z" id="Shape"></path>
                <path d="M6,10.0000006 C6.26526582,10.0003006 6.51970976,9.89485209 6.707,9.707 L7.707,8.707 C8.09145299,8.31551905 8.08860828,7.68735748 7.7006254,7.2993746 C7.31264252,6.91139172 6.68448095,6.90854701 6.293,7.293 L5.293,8.293 C5.00709208,8.57899425 4.92157809,9.00903662 5.07632202,9.38265456 C5.23106595,9.7562725 5.5956041,9.99991365 6,10.0000006 Z" id="Path"></path>
                <path d="M6,14.0000006 C6.26526582,14.0003006 6.51970976,13.8948521 6.707,13.707 L7.707,12.707 C8.09145299,12.3155191 8.08860828,11.6873575 7.7006254,11.2993746 C7.31264252,10.9113917 6.68448095,10.908547 6.293,11.293 L5.293,12.293 C5.00709208,12.5789943 4.92157809,13.0090366 5.07632202,13.3826546 C5.23106595,13.7562725 5.5956041,13.9999137 6,14.0000006 Z" id="Path"></path>
                <path d="M6,18.0000006 C6.26526582,18.0003006 6.51970976,17.8948521 6.707,17.707 L7.707,16.707 C8.09145299,16.3155191 8.08860828,15.6873575 7.7006254,15.2993746 C7.31264252,14.9113917 6.68448095,14.908547 6.293,15.293 L5.293,16.293 C5.00709208,16.5789943 4.92157809,17.0090366 5.07632202,17.3826546 C5.23106595,17.7562725 5.5956041,17.9999137 6,18.0000006 Z" id="Path"></path>
                <path d="M14,14.0000006 C14.2652658,14.0003006 14.5197098,13.8948521 14.707,13.707 L15.707,12.707 C16.091453,12.3155191 16.0886083,11.6873575 15.7006254,11.2993746 C15.3126425,10.9113917 14.6844809,10.908547 14.293,11.293 L13.293,12.293 C13.0070921,12.5789943 12.9215781,13.0090366 13.076322,13.3826546 C13.2310659,13.7562725 13.5956041,13.9999137 14,14.0000006 Z" id="Path"></path>
                <path d="M14,18.0000006 C14.2652658,18.0003006 14.5197098,17.8948521 14.707,17.707 L15.707,16.707 C16.091453,16.3155191 16.0886083,15.6873575 15.7006254,15.2993746 C15.3126425,14.9113917 14.6844809,14.908547 14.293,15.293 L13.293,16.293 C13.0070921,16.5789943 12.9215781,17.0090366 13.076322,17.3826546 C13.2310659,17.7562725 13.5956041,17.9999137 14,18.0000006 Z" id="Path"></path>
            </g>
        </g>
    </g>
</svg>